<?xml version="1.0" encoding="UTF-8" standalone="no"?>
<svg
   xmlns:dc="http://purl.org/dc/elements/1.1/"
   xmlns:cc="http://creativecommons.org/ns#"
   xmlns:rdf="http://www.w3.org/1999/02/22-rdf-syntax-ns#"
   xmlns:svg="http://www.w3.org/2000/svg"
   xmlns="http://www.w3.org/2000/svg"
   viewBox="0 0 17 16"
   height="16"
   width="17"
   version="1.1"
   id="svg2">
  <metadata
     id="metadata8">
    <rdf:RDF>
      <cc:Work
         rdf:about="">
        <dc:format>image/svg+xml</dc:format>
        <dc:type
           rdf:resource="http://purl.org/dc/dcmitype/StillImage" />
        <dc:title></dc:title>
      </cc:Work>
    </rdf:RDF>
  </metadata>
  <defs
     id="defs6" />
  <path
     id="path3401"
     d="m 399.37468,88.490739 c -5.2357,-1.870979 -10.41858,-5.279629 -13.38115,-8.800454 -4.0456,-4.807919 -2.09471,-4.537983 3.48967,0.482848 14.11685,12.692265 34.63953,9.131469 42.92417,-7.447577 4.24661,-8.498209 4.24661,-15.210269 0,-23.708478 -7.9843,-15.97801 -28.30874,-20.060195 -41.91033,-8.417738 -4.12236,3.528589 -8.97466,11.90195 -8.99487,15.521977 -0.0125,2.236447 0.88323,2.180328 3.99023,-0.25 2.61911,-2.048697 5.55598,-2.708605 4.50799,-1.012937 -0.33552,0.542885 -2.68641,2.41565 -5.22421,4.1617 l -4.61418,3.174638 -2.11012,-2.646351 c -3.37803,-4.236448 -5.75879,-8.67705 -4.65207,-8.67705 0.56127,0 2.0805,1.559944 3.37606,3.466542 l 2.35558,3.466542 1.28317,-5.006662 c 1.70044,-6.634768 7.46307,-13.735976 14.05575,-17.320705 23.46269,-12.757692 50.37947,10.654746 41.01735,35.677237 -5.21646,13.942239 -22.45426,22.217438 -36.11304,17.336468 z m 12.37412,-21.871805 -4.24359,-5.247617 -0.006,-9.25 c -0.004,-5.504269 0.39854,-9.25 0.9936,-9.25 0.5923,0 1,3.655068 1,8.965204 0,8.629745 0.11969,9.106822 3.19886,12.75 6.52353,7.71843 6.24345,7.28502 4.70613,7.282413 -0.77275,-0.0013 -3.31461,-2.363811 -5.64859,-5.25 z"
     style="fill:#4ac6af" />
</svg>
