<?xml version="1.0" encoding="UTF-8" standalone="no"?>
<svg
   xmlns:dc="http://purl.org/dc/elements/1.1/"
   xmlns:cc="http://creativecommons.org/ns#"
   xmlns:rdf="http://www.w3.org/1999/02/22-rdf-syntax-ns#"
   xmlns:svg="http://www.w3.org/2000/svg"
   xmlns="http://www.w3.org/2000/svg"
   viewBox="0 0 12.715573 18.389229"
   height="18.389229"
   width="12.715573"
   version="1.1"
   id="svg2">
  <metadata
     id="metadata8">
    <rdf:RDF>
      <cc:Work
         rdf:about="">
        <dc:format>image/svg+xml</dc:format>
        <dc:type
           rdf:resource="http://purl.org/dc/dcmitype/StillImage" />
        <dc:title></dc:title>
      </cc:Work>
    </rdf:RDF>
  </metadata>
  <defs
     id="defs6" />
  <path
     id="path3351"
     d="M 3.3332718,14.610624 C -0.49652823,8.0755649 -0.96407123,4.6796454 1.6114068,2.1041667 2.7686988,0.94687497 4.8405738,0 6.2155738,0 c 2.93542,0 6.5000002,3.2087038 6.5000002,5.8510607 0,1.7567028 -4.2804742,10.7248553 -5.9495712,12.4651283 -0.430544,0.448904 -1.975273,-1.2186 -3.432731,-3.705565 z M 8.7813158,8.9648163 C 12.387583,7.0348006 10.532832,2 6.2155738,2 c -4.203187,0 -6.16315408,4.9319212 -2.75,6.9199013 2.238302,1.3036917 2.952422,1.3097257 5.315742,0.044915 z M 5.5844528,6.6579907 c 0.612573,-0.7381051 0.896423,-1.6418551 0.630778,-2.0083333 -0.265644,-0.3664782 0.01405,-0.2517836 0.621544,0.254877 1.227207,1.0235123 0.355268,3.0954657 -1.302663,3.0954657 -0.726229,0 -0.710266,-0.425533 0.05034,-1.3420094 z"
     style="fill:#e2e2e2" />
</svg>
