<?xml version="1.0" encoding="UTF-8" standalone="no"?>
<svg
   xmlns:dc="http://purl.org/dc/elements/1.1/"
   xmlns:cc="http://creativecommons.org/ns#"
   xmlns:rdf="http://www.w3.org/1999/02/22-rdf-syntax-ns#"
   xmlns:svg="http://www.w3.org/2000/svg"
   xmlns="http://www.w3.org/2000/svg"
   viewBox="0 0 52 29"
   height="29"
   width="52"
   version="1.1"
   id="svg2">
  <metadata
     id="metadata8">
    <rdf:RDF>
      <cc:Work
         rdf:about="">
        <dc:format>image/svg+xml</dc:format>
        <dc:type
           rdf:resource="http://purl.org/dc/dcmitype/StillImage" />
        <dc:title></dc:title>
      </cc:Work>
    </rdf:RDF>
  </metadata>
  <defs
     id="defs6" />
  <path
     id="path3351"
     d="m 35.905263,24.229275 0,-3.539993 -5.75,-0.299904 -6.434211,-0.163062 0.112155,-5.972337 0.248996,-5.2881268 5.66153,0.2460213 6.482583,-0.027663 0.08947,-4.6247591 0.08947,-3.80370655 7.361627,6.69438975 7.361627,6.6943904 -7.611627,6.812371 -7.611627,6.812371 z M 4.9052635,14.589474 c 0.1129867,-5.6849337 0.444444,-6.0000003 1,-6.0000003 0.2919924,0 0.7044656,0.019191 0.9506579,0.898447 0.2222219,0.7936473 0.3089663,2.2880323 0.049342,5.1015533 -0.3065478,3.322027 -0.444445,6 -1,6 -0.4407784,0 -0.9765015,-0.334508 -0.988408,-3.20518 -0.011592,-2.79482 -0.034033,-1.665674 -0.011592,-2.79482 z m 3,0 c -0.4105263,-5.933333 1,-6.0000003 1,-6.0000003 0.4063356,-0.080306 1.6029665,-1.9850064 1.7195015,0.420691 0.03977,0.8210408 0.308032,4.4825393 -0.308975,5.7161513 -0.239511,0.478866 0.407507,1.779753 0.281792,2.24789 -0.6569363,2.446297 -1.2259998,3.615268 -1.6923185,3.615268 -0.555556,0 -0.7699173,-2.674617 -1,-6 z m 4.6874995,5.354167 c -0.19664,-0.19664 -0.410526,2.736842 -0.910826,0.551898 -0.2406,-1.050768 0.223326,-5.164846 0.223326,-6.572732 0,-4.7099457 -0.307765,-5.4701754 2.049904,-5.3333333 1.857687,0.1078225 2.02224,0.5231132 1.75,5.6709963 -0.07892,1.492286 0,-8.2049931 -0.442355,3.701502 -0.03938,1.06003 0.373774,1.793439 -0.01695,2.194635 -0.529451,0.543639 -1.962845,0.477287 -2.653098,-0.212966 z m 5.3125,-5.354167 c 0.04435,-1.950397 0.08599,-4.7820018 0.207982,-5.679866 0.211504,-1.5566982 0.664541,-0.3201343 1.792018,-0.3201343 0.887149,0 1.523772,-0.5181959 1.801875,0.3109021 0.279194,0.8323512 0.127789,3.0181362 0.198125,5.6890982 0.136842,5.196491 -0.222222,6 -2,6 -1.466486,0 -1.967598,2.74878 -2.021315,-0.624736 -0.0114,-0.716098 -0.0026,-4.321583 0.02132,-5.375264 z m -16.99999953,-0.5 c 0,-3.025 0.61046953,-5.1117143 1.00000003,-5.5000003 0,0 2.2614875,0.021681 1.9578947,4.6789473 -0.3313717,5.083411 -1,5.5 -1,5.5 C 1.4630059,17.812773 0.90526347,20.125 0.90526347,14.089474 Z"
     style="fill:#c3c3c3" />
</svg>
