<?xml version="1.0" encoding="UTF-8" standalone="no"?>
<svg
   xmlns:dc="http://purl.org/dc/elements/1.1/"
   xmlns:cc="http://creativecommons.org/ns#"
   xmlns:rdf="http://www.w3.org/1999/02/22-rdf-syntax-ns#"
   xmlns:svg="http://www.w3.org/2000/svg"
   xmlns="http://www.w3.org/2000/svg"
   viewBox="0 0 52 29"
   height="29"
   width="52"
   version="1.1"
   id="svg2">
  <metadata
     id="metadata8">
    <rdf:RDF>
      <cc:Work
         rdf:about="">
        <dc:format>image/svg+xml</dc:format>
        <dc:type
           rdf:resource="http://purl.org/dc/dcmitype/StillImage" />
        <dc:title></dc:title>
      </cc:Work>
    </rdf:RDF>
  </metadata>
  <defs
     id="defs6" />
  <path
     id="path3338"
     d="m 36.042105,23.818748 0,-3.539993 -6.434211,-0.299904 -6.434211,-0.299904 -0.02622,-5.613158 0.110622,-5.8868419 5.992406,0 6.950301,0.2736842 -0.239871,-3.2292235 -0.103032,-4.87132768 7.361627,6.69095898 7.361627,6.6909589 -7.474785,6.812371 -7.064258,6.675529 z M 4.3578942,14.178947 C 4.3886813,13.723719 4.458005,13.272371 4.382021,12.852746 3.5237528,8.1129172 4.8783837,8.1789471 5.3578942,8.1789471 c 0.2813076,0 0.807811,-0.4110205 0.9888667,0.6967606 0.1765122,1.0799824 0.1479754,3.7945923 0.1479754,5.4400813 0,1.880701 0.2254837,3.779302 -0.035577,4.838378 -0.2016407,0.818018 -0.8591591,1.02478 -1.1012647,1.02478 -0.3249028,0 -1.0258965,0.297686 -1.2425944,-0.896558 -0.1538363,-0.847806 0.072154,-2.583261 0.242594,-5.103442 z m 3.666667,5.333333 C 6.9553762,18.443095 7.2572632,8.1789471 8.3578942,8.1789471 c 0.2559237,0 1.317675,-0.2261208 1.6504748,0.7414743 0.389637,1.1328486 0.03374,3.5975756 0.03374,5.3953676 0,2.767828 0.241885,4.207234 -0.056905,4.987206 -0.3547306,0.926001 -1.3034321,0.866491 -1.9606428,0.209285 z m 4.0208328,0.02083 c -0.497249,-0.196724 -0.6875,-3.0875 -0.6875,-6.020834 0,-4.7099449 0.239603,-5.3333329 2.049904,-5.3333329 1.860813,0 1.956875,0.5200722 1.75,5.6709959 -0.210646,5.24482 1.125744,7.359887 -3.112404,5.683171 z m 5.3125,-5.354167 c 0,-5.3333329 0.222222,-5.9999999 2,-5.9999999 1.777778,0 2,0.666667 2,5.9999999 0,5.333333 -0.222222,6 -2,6 -1.777778,0 -2,-0.666667 -2,-6 z m -16.99999979,-0.5 c 5e-7,-3.025 0.45,-5.4999999 0.99999999,-5.4999999 0.4715905,0 2.10124,-1.0540678 1.657787,3.1506179 -0.042341,0.401462 -0.1104191,2.89675 -0.1104191,2.89675 0.5473684,4.119737 -0.45,5.5 -1,5.5 -0.1930233,0 -1.36613388,-0.575711 -1.36613388,-0.575711 0.41218741,-0.362406 0.41657507,0.227547 0.41657507,0.227547 C 1.431649,18.981722 0.74844171,17.736879 0.34503002,17.009049 0.07642316,16.524432 0.35789414,14.110568 0.35789421,13.678943 Z"
     style="fill:#9b9b9b" />
</svg>
