<svg xmlns="http://www.w3.org/2000/svg" xmlns:xlink="http://www.w3.org/1999/xlink" width="11" height="34" viewBox="0 0 11 34"><defs><path id="mkhva" d="M1546.27 3728c-.06 0-.12-.05-.17-.14a.85.85 0 0 1 0-.69l8.2-16.17-8.2-16.17a.85.85 0 0 1 0-.7c.1-.18.25-.18.35 0L1555 3711l-8.55 16.86c-.05.1-.11.14-.18.14zm-1.99 0c-.06 0-.13-.05-.17-.14a.85.85 0 0 1 0-.69l8.2-16.17-8.2-16.17a.85.85 0 0 1 0-.7c.1-.18.25-.18.34 0L1553 3711l-8.55 16.86c-.04.1-.1.14-.17.14z"/></defs><g><g transform="translate(-1544 -3694)"><use fill="#071c22" xlink:href="#mkhva"/></g></g></svg>