<svg xmlns="http://www.w3.org/2000/svg" xmlns:xlink="http://www.w3.org/1999/xlink" width="11" height="34" viewBox="0 0 11 34"><defs><path id="w5pja" d="M371.57 3728.86L363 3712l8.57-16.86c.1-.2.26-.2.35 0 .1.19.1.5 0 .69L363.7 3712l8.22 16.17c.1.19.1.5 0 .69-.04.1-.1.14-.17.14-.06 0-.13-.05-.18-.14zm2 0L365 3712l8.57-16.86c.1-.2.26-.2.35 0 .1.19.1.5 0 .69L365.7 3712l8.22 16.17c.1.19.1.5 0 .69-.04.1-.1.14-.17.14-.06 0-.13-.05-.18-.14z"/></defs><g><g transform="translate(-363 -3695)"><use fill="#071c22" xlink:href="#w5pja"/></g></g></svg>